<mxfile host="app.diagrams.net" modified="2022-01-07T08:49:45.097Z" agent="5.0 (Macintosh; Intel Mac OS X 10_15_7) AppleWebKit/537.36 (KHTML, like Gecko) Chrome/95.0.4638.69 Safari/537.36" etag="V6_mxezLVGo10oPZ6ITO" version="16.0.3" type="github">
  <diagram id="Hvcksu5SYlabJ9YkDik1" name="Page-1">
    <mxGraphModel dx="2125" dy="2039" grid="1" gridSize="10" guides="1" tooltips="1" connect="1" arrows="1" fold="1" page="1" pageScale="1" pageWidth="827" pageHeight="1169" math="0" shadow="0">
      <root>
        <mxCell id="0" />
        <mxCell id="1" parent="0" />
        <mxCell id="0Hce5XawF-jffTjiQ9eF-1" value="" style="rounded=1;whiteSpace=wrap;html=1;fillColor=#f9f7ed;strokeColor=#36393d;dashed=1;strokeWidth=2;" vertex="1" parent="1">
          <mxGeometry x="-30" y="-200" width="1870" height="1310" as="geometry" />
        </mxCell>
        <mxCell id="0Hce5XawF-jffTjiQ9eF-2" value="" style="rounded=1;whiteSpace=wrap;html=1;fillColor=#fff2cc;strokeColor=#d6b656;gradientColor=#ffd966;" vertex="1" parent="1">
          <mxGeometry x="190" y="140" width="1510" height="690" as="geometry" />
        </mxCell>
        <mxCell id="0Hce5XawF-jffTjiQ9eF-3" style="edgeStyle=orthogonalEdgeStyle;rounded=0;orthogonalLoop=1;jettySize=auto;html=1;entryX=0.001;entryY=0.534;entryDx=0;entryDy=0;entryPerimeter=0;startArrow=classic;startFill=1;" edge="1" parent="1" source="0Hce5XawF-jffTjiQ9eF-5" target="0Hce5XawF-jffTjiQ9eF-12">
          <mxGeometry relative="1" as="geometry" />
        </mxCell>
        <mxCell id="0Hce5XawF-jffTjiQ9eF-4" value="Req/Res" style="edgeLabel;html=1;align=center;verticalAlign=middle;resizable=0;points=[];" vertex="1" connectable="0" parent="0Hce5XawF-jffTjiQ9eF-3">
          <mxGeometry x="-0.17" relative="1" as="geometry">
            <mxPoint x="2" as="offset" />
          </mxGeometry>
        </mxCell>
        <mxCell id="0Hce5XawF-jffTjiQ9eF-5" value="" style="rounded=1;whiteSpace=wrap;html=1;gradientColor=#97d077;fillColor=#d5e8d4;strokeColor=#82b366;" vertex="1" parent="1">
          <mxGeometry x="450" y="280" width="300" height="320" as="geometry" />
        </mxCell>
        <mxCell id="0Hce5XawF-jffTjiQ9eF-6" style="edgeStyle=orthogonalEdgeStyle;rounded=0;orthogonalLoop=1;jettySize=auto;html=1;entryX=0;entryY=0.5;entryDx=0;entryDy=0;entryPerimeter=0;" edge="1" parent="1" source="0Hce5XawF-jffTjiQ9eF-7" target="0Hce5XawF-jffTjiQ9eF-10">
          <mxGeometry relative="1" as="geometry" />
        </mxCell>
        <mxCell id="0Hce5XawF-jffTjiQ9eF-7" value="" style="pointerEvents=1;shadow=0;dashed=0;html=1;strokeColor=none;labelPosition=center;verticalLabelPosition=bottom;verticalAlign=top;align=center;fillColor=#505050;shape=mxgraph.mscae.intune.user_group" vertex="1" parent="1">
          <mxGeometry x="40" y="400" width="110" height="87" as="geometry" />
        </mxCell>
        <mxCell id="0Hce5XawF-jffTjiQ9eF-8" style="edgeStyle=orthogonalEdgeStyle;rounded=0;orthogonalLoop=1;jettySize=auto;html=1;startArrow=classic;startFill=1;" edge="1" parent="1" source="0Hce5XawF-jffTjiQ9eF-10">
          <mxGeometry relative="1" as="geometry">
            <mxPoint x="550" y="444" as="targetPoint" />
          </mxGeometry>
        </mxCell>
        <mxCell id="0Hce5XawF-jffTjiQ9eF-9" value="Req/Res" style="edgeLabel;html=1;align=center;verticalAlign=middle;resizable=0;points=[];" vertex="1" connectable="0" parent="0Hce5XawF-jffTjiQ9eF-8">
          <mxGeometry x="-0.1247" y="-1" relative="1" as="geometry">
            <mxPoint y="1" as="offset" />
          </mxGeometry>
        </mxCell>
        <mxCell id="0Hce5XawF-jffTjiQ9eF-10" value="" style="points=[[0,0,0],[0.25,0,0],[0.5,0,0],[0.75,0,0],[1,0,0],[0,1,0],[0.25,1,0],[0.5,1,0],[0.75,1,0],[1,1,0],[0,0.25,0],[0,0.5,0],[0,0.75,0],[1,0.25,0],[1,0.5,0],[1,0.75,0]];outlineConnect=0;fontColor=#232F3E;gradientColor=#4AB29A;gradientDirection=north;fillColor=#116D5B;strokeColor=#ffffff;dashed=0;verticalLabelPosition=bottom;verticalAlign=top;align=center;html=1;fontSize=12;fontStyle=0;aspect=fixed;shape=mxgraph.aws4.resourceIcon;resIcon=mxgraph.aws4.desktop_and_app_streaming;" vertex="1" parent="1">
          <mxGeometry x="230" y="373.5" width="140" height="140" as="geometry" />
        </mxCell>
        <mxCell id="0Hce5XawF-jffTjiQ9eF-11" value="" style="shape=image;html=1;verticalAlign=top;verticalLabelPosition=bottom;labelBackgroundColor=#ffffff;imageAspect=0;aspect=fixed;image=https://cdn4.iconfinder.com/data/icons/logos-brands-5/24/nginx-128.png" vertex="1" parent="1">
          <mxGeometry x="540" y="379.5" width="128" height="128" as="geometry" />
        </mxCell>
        <mxCell id="0Hce5XawF-jffTjiQ9eF-12" value="" style="rounded=1;whiteSpace=wrap;html=1;gradientColor=#d5739d;fillColor=#e6d0de;strokeColor=#996185;" vertex="1" parent="1">
          <mxGeometry x="840" y="270" width="670" height="320" as="geometry" />
        </mxCell>
        <mxCell id="0Hce5XawF-jffTjiQ9eF-13" value="User/Admin" style="text;html=1;align=center;verticalAlign=middle;resizable=0;points=[];autosize=1;strokeColor=none;" vertex="1" parent="1">
          <mxGeometry x="50" y="490" width="80" height="20" as="geometry" />
        </mxCell>
        <mxCell id="0Hce5XawF-jffTjiQ9eF-14" value="Mobile/ Web Application" style="text;html=1;strokeColor=none;fillColor=none;align=center;verticalAlign=middle;whiteSpace=wrap;rounded=0;" vertex="1" parent="1">
          <mxGeometry x="240" y="520" width="120" height="30" as="geometry" />
        </mxCell>
        <mxCell id="0Hce5XawF-jffTjiQ9eF-15" value="Web Server" style="text;html=1;strokeColor=none;fillColor=none;align=center;verticalAlign=middle;whiteSpace=wrap;rounded=0;" vertex="1" parent="1">
          <mxGeometry x="560" y="520" width="80" height="20" as="geometry" />
        </mxCell>
        <mxCell id="0Hce5XawF-jffTjiQ9eF-16" style="edgeStyle=orthogonalEdgeStyle;rounded=1;orthogonalLoop=1;jettySize=auto;html=1;entryX=0;entryY=0.5;entryDx=0;entryDy=0;entryPerimeter=0;" edge="1" parent="1" source="0Hce5XawF-jffTjiQ9eF-19" target="0Hce5XawF-jffTjiQ9eF-22">
          <mxGeometry relative="1" as="geometry" />
        </mxCell>
        <mxCell id="0Hce5XawF-jffTjiQ9eF-17" value="DML/DDL" style="edgeLabel;html=1;align=center;verticalAlign=middle;resizable=0;points=[];" vertex="1" connectable="0" parent="0Hce5XawF-jffTjiQ9eF-16">
          <mxGeometry x="0.2258" y="1" relative="1" as="geometry">
            <mxPoint y="17" as="offset" />
          </mxGeometry>
        </mxCell>
        <mxCell id="0Hce5XawF-jffTjiQ9eF-18" style="edgeStyle=orthogonalEdgeStyle;rounded=1;orthogonalLoop=1;jettySize=auto;html=1;startArrow=classic;startFill=1;" edge="1" parent="1" source="0Hce5XawF-jffTjiQ9eF-19" target="0Hce5XawF-jffTjiQ9eF-24">
          <mxGeometry relative="1" as="geometry" />
        </mxCell>
        <mxCell id="0Hce5XawF-jffTjiQ9eF-19" value="" style="outlineConnect=0;dashed=0;verticalLabelPosition=bottom;verticalAlign=top;align=center;html=1;shape=mxgraph.aws3.android;fillColor=#8CC64F;gradientColor=none;" vertex="1" parent="1">
          <mxGeometry x="870" y="388" width="90" height="104" as="geometry" />
        </mxCell>
        <mxCell id="0Hce5XawF-jffTjiQ9eF-20" value="App/Blockchain Server" style="text;html=1;strokeColor=none;fillColor=none;align=center;verticalAlign=middle;whiteSpace=wrap;rounded=0;" vertex="1" parent="1">
          <mxGeometry x="1140" y="600" width="40" height="20" as="geometry" />
        </mxCell>
        <mxCell id="0Hce5XawF-jffTjiQ9eF-21" value="API Server" style="text;html=1;strokeColor=none;fillColor=none;align=center;verticalAlign=middle;whiteSpace=wrap;rounded=0;" vertex="1" parent="1">
          <mxGeometry x="900" y="500" width="40" height="20" as="geometry" />
        </mxCell>
        <mxCell id="0Hce5XawF-jffTjiQ9eF-22" value="" style="points=[[0,0,0],[0.25,0,0],[0.5,0,0],[0.75,0,0],[1,0,0],[0,1,0],[0.25,1,0],[0.5,1,0],[0.75,1,0],[1,1,0],[0,0.25,0],[0,0.5,0],[0,0.75,0],[1,0.25,0],[1,0.5,0],[1,0.75,0]];outlineConnect=0;fontColor=#232F3E;gradientColor=#4D72F3;gradientDirection=north;fillColor=#3334B9;strokeColor=#ffffff;dashed=0;verticalLabelPosition=bottom;verticalAlign=top;align=center;html=1;fontSize=12;fontStyle=0;aspect=fixed;shape=mxgraph.aws4.resourceIcon;resIcon=mxgraph.aws4.documentdb_with_mongodb_compatibility;" vertex="1" parent="1">
          <mxGeometry x="1180" y="280" width="78" height="78" as="geometry" />
        </mxCell>
        <mxCell id="0Hce5XawF-jffTjiQ9eF-23" value="Mongo DB" style="text;html=1;strokeColor=none;fillColor=none;align=center;verticalAlign=middle;whiteSpace=wrap;rounded=0;" vertex="1" parent="1">
          <mxGeometry x="1270" y="309" width="40" height="20" as="geometry" />
        </mxCell>
        <mxCell id="0Hce5XawF-jffTjiQ9eF-24" value="" style="shape=image;html=1;verticalAlign=top;verticalLabelPosition=bottom;labelBackgroundColor=#ffffff;imageAspect=0;aspect=fixed;image=https://cdn0.iconfinder.com/data/icons/blockchain-classic/256/Qtum-128.png" vertex="1" parent="1">
          <mxGeometry x="1179" y="434.5" width="85.5" height="85.5" as="geometry" />
        </mxCell>
        <mxCell id="0Hce5XawF-jffTjiQ9eF-25" value="Blockchain Node" style="text;html=1;strokeColor=none;fillColor=none;align=center;verticalAlign=middle;whiteSpace=wrap;rounded=0;" vertex="1" parent="1">
          <mxGeometry x="1199" y="520" width="40" height="20" as="geometry" />
        </mxCell>
        <mxCell id="0Hce5XawF-jffTjiQ9eF-26" value="" style="shape=image;html=1;verticalAlign=top;verticalLabelPosition=bottom;labelBackgroundColor=#ffffff;imageAspect=0;aspect=fixed;image=https://cdn0.iconfinder.com/data/icons/blockchain-classic/256/Qtum-128.png" vertex="1" parent="1">
          <mxGeometry x="1170" y="20" width="85.5" height="85.5" as="geometry" />
        </mxCell>
        <mxCell id="0Hce5XawF-jffTjiQ9eF-27" value="" style="shape=image;html=1;verticalAlign=top;verticalLabelPosition=bottom;labelBackgroundColor=#ffffff;imageAspect=0;aspect=fixed;image=https://cdn0.iconfinder.com/data/icons/blockchain-classic/256/Qtum-128.png" vertex="1" parent="1">
          <mxGeometry x="1184.5" y="880" width="85.5" height="85.5" as="geometry" />
        </mxCell>
        <mxCell id="0Hce5XawF-jffTjiQ9eF-28" value="" style="endArrow=classic;startArrow=classic;html=1;entryX=1;entryY=0.5;entryDx=0;entryDy=0;" edge="1" parent="1" target="0Hce5XawF-jffTjiQ9eF-24">
          <mxGeometry width="50" height="50" relative="1" as="geometry">
            <mxPoint x="1250" y="60" as="sourcePoint" />
            <mxPoint x="1300" y="10" as="targetPoint" />
            <Array as="points">
              <mxPoint x="1320" y="60" />
              <mxPoint x="1320" y="477" />
            </Array>
          </mxGeometry>
        </mxCell>
        <mxCell id="0Hce5XawF-jffTjiQ9eF-29" value="" style="endArrow=classic;html=1;entryX=1;entryY=0.5;entryDx=0;entryDy=0;" edge="1" parent="1" target="0Hce5XawF-jffTjiQ9eF-27">
          <mxGeometry width="50" height="50" relative="1" as="geometry">
            <mxPoint x="1320" y="470" as="sourcePoint" />
            <mxPoint x="1420" y="550" as="targetPoint" />
            <Array as="points">
              <mxPoint x="1330" y="923" />
            </Array>
          </mxGeometry>
        </mxCell>
        <mxCell id="0Hce5XawF-jffTjiQ9eF-30" value="Other Org Blockchain Node" style="text;html=1;strokeColor=none;fillColor=none;align=center;verticalAlign=middle;whiteSpace=wrap;rounded=0;" vertex="1" parent="1">
          <mxGeometry x="1150" y="106" width="100" height="20" as="geometry" />
        </mxCell>
        <mxCell id="0Hce5XawF-jffTjiQ9eF-31" value="Other Org Blockchain Node" style="text;html=1;strokeColor=none;fillColor=none;align=center;verticalAlign=middle;whiteSpace=wrap;rounded=0;" vertex="1" parent="1">
          <mxGeometry x="1180" y="965.5" width="100" height="20" as="geometry" />
        </mxCell>
        <mxCell id="0Hce5XawF-jffTjiQ9eF-32" value="DMZ server" style="text;html=1;strokeColor=none;fillColor=none;align=center;verticalAlign=middle;whiteSpace=wrap;rounded=0;" vertex="1" parent="1">
          <mxGeometry x="550" y="250" width="80" height="20" as="geometry" />
        </mxCell>
        <mxCell id="0Hce5XawF-jffTjiQ9eF-33" value="Non-DMZ server" style="text;html=1;strokeColor=none;fillColor=none;align=center;verticalAlign=middle;whiteSpace=wrap;rounded=0;" vertex="1" parent="1">
          <mxGeometry x="1170" y="240" width="100" height="20" as="geometry" />
        </mxCell>
        <mxCell id="0Hce5XawF-jffTjiQ9eF-34" value="NGINX" style="text;html=1;strokeColor=none;fillColor=none;align=center;verticalAlign=middle;whiteSpace=wrap;rounded=0;" vertex="1" parent="1">
          <mxGeometry x="560" y="354" width="90" height="20" as="geometry" />
        </mxCell>
        <mxCell id="0Hce5XawF-jffTjiQ9eF-35" value="NodeJS" style="text;html=1;strokeColor=none;fillColor=none;align=center;verticalAlign=middle;whiteSpace=wrap;rounded=0;" vertex="1" parent="1">
          <mxGeometry x="870" y="359.5" width="90" height="20" as="geometry" />
        </mxCell>
        <mxCell id="0Hce5XawF-jffTjiQ9eF-36" value="" style="rounded=1;whiteSpace=wrap;html=1;gradientColor=#b3b3b3;fillColor=#f5f5f5;strokeColor=#666666;" vertex="1" parent="1">
          <mxGeometry x="740" y="-140" width="310" height="177" as="geometry" />
        </mxCell>
        <mxCell id="0Hce5XawF-jffTjiQ9eF-37" value="" style="outlineConnect=0;dashed=0;verticalLabelPosition=bottom;verticalAlign=top;align=center;html=1;shape=mxgraph.aws3.android;fillColor=#8CC64F;gradientColor=none;" vertex="1" parent="1">
          <mxGeometry x="850" y="-109.5" width="90" height="104" as="geometry" />
        </mxCell>
        <mxCell id="0Hce5XawF-jffTjiQ9eF-38" value="AKCESS Third Party Server" style="text;html=1;strokeColor=none;fillColor=none;align=center;verticalAlign=middle;whiteSpace=wrap;rounded=0;" vertex="1" parent="1">
          <mxGeometry x="850" y="7" width="90" height="20" as="geometry" />
        </mxCell>
        <mxCell id="0Hce5XawF-jffTjiQ9eF-39" value="" style="endArrow=classic;startArrow=classic;html=1;" edge="1" parent="1">
          <mxGeometry width="50" height="50" relative="1" as="geometry">
            <mxPoint x="630" y="280" as="sourcePoint" />
            <mxPoint x="738" y="-60" as="targetPoint" />
            <Array as="points">
              <mxPoint x="630" y="-60" />
            </Array>
          </mxGeometry>
        </mxCell>
        <mxCell id="0Hce5XawF-jffTjiQ9eF-40" value="Req/Res" style="edgeLabel;html=1;align=center;verticalAlign=middle;resizable=0;points=[];" vertex="1" connectable="0" parent="0Hce5XawF-jffTjiQ9eF-39">
          <mxGeometry x="0.1384" y="2" relative="1" as="geometry">
            <mxPoint as="offset" />
          </mxGeometry>
        </mxCell>
        <mxCell id="0Hce5XawF-jffTjiQ9eF-41" value="&lt;font style=&quot;font-size: 23px&quot;&gt;&lt;b&gt;Bank Setup Architecture&amp;nbsp;&lt;/b&gt;&lt;/font&gt;" style="text;html=1;strokeColor=#6c8ebf;fillColor=#dae8fc;align=center;verticalAlign=middle;whiteSpace=wrap;rounded=0;gradientColor=#7ea6e0;" vertex="1" parent="1">
          <mxGeometry x="770" y="985.5" width="330" height="70" as="geometry" />
        </mxCell>
      </root>
    </mxGraphModel>
  </diagram>
</mxfile>
